<svg width="256" height="256" viewBox="0 0 256 256" fill="none" xmlns="http://www.w3.org/2000/svg">
  <defs>
    <radialGradient id="pichu-bg" cx="0" cy="0" r="1" gradientUnits="userSpaceOnUse" gradientTransform="translate(128 128) rotate(90) scale(128)">
      <stop stop-color="#FFF9C4"/>
      <stop offset="1" stop-color="#FBC02D"/>
    </radialGradient>
  </defs>
  <rect width="256" height="256" rx="32" fill="url(#pichu-bg)"/>
  <g transform="translate(48 42)">
    <path d="M32 28C24 16 12 10 8 12C4 14 10 34 18 44C26 54 46 62 46 62L56 40C52 40 40 40 32 28Z" fill="#4E342E"/>
    <path d="M160 28C168 16 180 10 184 12C188 14 182 34 174 44C166 54 146 62 146 62L136 40C140 40 152 40 160 28Z" fill="#4E342E"/>
    <ellipse cx="96" cy="100" rx="76" ry="72" fill="#FFE066"/>
    <ellipse cx="70" cy="96" rx="12" ry="14" fill="#33261C"/>
    <ellipse cx="122" cy="96" rx="12" ry="14" fill="#33261C"/>
    <circle cx="68" cy="120" r="10" fill="#FF6B6B" opacity="0.85"/>
    <circle cx="124" cy="120" r="10" fill="#FF6B6B" opacity="0.85"/>
    <path d="M80 140C88 148 104 148 112 140" stroke="#33261C" stroke-width="6" stroke-linecap="round" stroke-linejoin="round"/>
    <path d="M60 170C76 190 116 190 132 170" stroke="#33261C" stroke-width="8" stroke-linecap="round" stroke-linejoin="round" opacity="0.3"/>
  </g>
</svg>
