<svg width="256" height="256" viewBox="0 0 256 256" fill="none" xmlns="http://www.w3.org/2000/svg">
  <defs>
    <radialGradient id="pikachu-bg" cx="0" cy="0" r="1" gradientUnits="userSpaceOnUse" gradientTransform="translate(128 128) rotate(90) scale(140)">
      <stop stop-color="#FFF59D"/>
      <stop offset="1" stop-color="#FDD835"/>
    </radialGradient>
  </defs>
  <rect width="256" height="256" rx="32" fill="url(#pikachu-bg)"/>
  <g transform="translate(40 36)">
    <path d="M24 40C20 24 6 6 4 10C-2 22 12 58 36 70C52 78 58 78 58 78L66 50C56 50 30 64 24 40Z" fill="#3E2723"/>
    <path d="M176 40C180 24 194 6 196 10C202 22 188 58 164 70C148 78 142 78 142 78L134 50C144 50 170 64 176 40Z" fill="#3E2723"/>
    <ellipse cx="108" cy="120" rx="84" ry="80" fill="#FFEB3B"/>
    <ellipse cx="80" cy="114" rx="14" ry="16" fill="#2F2418"/>
    <ellipse cx="136" cy="114" rx="14" ry="16" fill="#2F2418"/>
    <circle cx="78" cy="140" r="11" fill="#FF5252" opacity="0.8"/>
    <circle cx="138" cy="140" r="11" fill="#FF5252" opacity="0.8"/>
    <path d="M86 160C96 170 120 170 130 160" stroke="#2F2418" stroke-width="6" stroke-linecap="round" stroke-linejoin="round"/>
    <path d="M70 184C88 208 128 208 146 184" stroke="#2F2418" stroke-width="8" stroke-linecap="round" stroke-linejoin="round" opacity="0.25"/>
  </g>
</svg>
