<svg width="256" height="256" viewBox="0 0 256 256" fill="none" xmlns="http://www.w3.org/2000/svg">
  <defs>
    <radialGradient id="raichu-bg" cx="0" cy="0" r="1" gradientUnits="userSpaceOnUse" gradientTransform="translate(128 128) rotate(90) scale(150)">
      <stop stop-color="#FFE0B2"/>
      <stop offset="1" stop-color="#FB8C00"/>
    </radialGradient>
  </defs>
  <rect width="256" height="256" rx="32" fill="url(#raichu-bg)"/>
  <g transform="translate(36 32)">
    <path d="M30 60C18 38 4 18 0 22C-8 30 14 76 42 90C60 98 66 96 66 96L74 66C60 66 42 84 30 60Z" fill="#4A2C1A"/>
    <path d="M182 60C194 38 208 18 212 22C220 30 198 76 170 90C152 98 146 96 146 96L138 66C152 66 170 84 182 60Z" fill="#4A2C1A"/>
    <ellipse cx="112" cy="138" rx="92" ry="88" fill="#FFB74D"/>
    <ellipse cx="80" cy="128" rx="16" ry="18" fill="#2D2217"/>
    <ellipse cx="144" cy="128" rx="16" ry="18" fill="#2D2217"/>
    <circle cx="78" cy="158" r="12" fill="#FF7043" opacity="0.85"/>
    <circle cx="146" cy="158" r="12" fill="#FF7043" opacity="0.85"/>
    <path d="M90 178C104 190 120 190 134 178" stroke="#2D2217" stroke-width="7" stroke-linecap="round" stroke-linejoin="round"/>
    <path d="M70 210C92 238 132 238 154 210" stroke="#2D2217" stroke-width="9" stroke-linecap="round" stroke-linejoin="round" opacity="0.2"/>
  </g>
</svg>
